<svg xmlns="http://www.w3.org/2000/svg" width="400" height="540" viewBox="0 0 400 540" font-family="monospace, sans-serif">
  <!-- Background -->
  <rect width="400" height="540" fill="#ffffff" rx="8"/>
  <!-- Header bar -->
  <rect width="400" height="80" fill="#ff6600" rx="8"/>
  <rect y="72" width="400" height="8" fill="#ff6600"/>
  <!-- M-Pesa style logo -->
  <rect x="16" y="16" width="48" height="48" fill="#ffffff" rx="6" opacity="0.2"/>
  <text x="40" y="48" text-anchor="middle" fill="#ffffff" font-size="22" font-weight="bold">M</text>
  <!-- Service name -->
  <text x="76" y="34" fill="#ffffff" font-size="18" font-weight="bold">M-PESA</text>
  <text x="76" y="52" fill="#ffe0cc" font-size="11">Mobile Money Transfer</text>
  <text x="76" y="68" fill="#ffe0cc" font-size="10">Safaricom PLC</text>

  <!-- Receipt title -->
  <text x="200" y="110" text-anchor="middle" fill="#ff6600" font-size="15" font-weight="bold">TRANSACTION RECEIPT</text>
  <line x1="20" y1="118" x2="380" y2="118" stroke="#e0e0e0" stroke-width="1"/>

  <!-- Status badge -->
  <rect x="130" y="126" width="140" height="24" fill="#fff3cd" rx="12"/>
  <text x="200" y="142" text-anchor="middle" fill="#856404" font-size="12" font-weight="bold">✓ SENT SUCCESSFULLY</text>

  <!-- Transaction details -->
  <text x="20" y="176" fill="#666" font-size="10">TRANSACTION ID</text>
  <text x="20" y="192" fill="#111" font-size="13" font-weight="bold">QHG7K2P9X4</text>

  <line x1="20" y1="202" x2="380" y2="202" stroke="#f0f0f0" stroke-width="1"/>

  <text x="20" y="220" fill="#666" font-size="10">DATE &amp; TIME</text>
  <text x="20" y="236" fill="#111" font-size="12">15/01/2024  16:45:22</text>

  <line x1="20" y1="246" x2="380" y2="246" stroke="#f0f0f0" stroke-width="1"/>

  <text x="20" y="264" fill="#666" font-size="10">FROM</text>
  <text x="20" y="280" fill="#111" font-size="12">Alice Nakamoto</text>
  <text x="20" y="294" fill="#888" font-size="10">+254 712 345 678</text>

  <line x1="20" y1="304" x2="380" y2="304" stroke="#f0f0f0" stroke-width="1"/>

  <text x="20" y="322" fill="#666" font-size="10">TO</text>
  <text x="20" y="338" fill="#111" font-size="12">Bob Okonkwo</text>
  <text x="20" y="352" fill="#888" font-size="10">+254 798 654 321</text>

  <line x1="20" y1="362" x2="380" y2="362" stroke="#f0f0f0" stroke-width="1"/>

  <text x="20" y="380" fill="#666" font-size="10">REASON / REFERENCE</text>
  <text x="20" y="396" fill="#111" font-size="12">APPEN-TRADE-0042</text>

  <line x1="20" y1="406" x2="380" y2="406" stroke="#e0e0e0" stroke-width="1.5"/>

  <!-- Amount section -->
  <rect x="20" y="416" width="360" height="64" fill="#fff8f5" rx="6"/>
  <text x="36" y="438" fill="#666" font-size="10">AMOUNT SENT</text>
  <text x="36" y="466" fill="#ff6600" font-size="28" font-weight="bold">KES 65,000.00</text>
  <text x="340" y="466" text-anchor="end" fill="#888" font-size="10">≈ USD 500</text>

  <!-- Footer -->
  <line x1="20" y1="496" x2="380" y2="496" stroke="#e0e0e0" stroke-width="1"/>
  <text x="200" y="514" text-anchor="middle" fill="#aaa" font-size="9">M-PESA is a registered trademark of Safaricom PLC</text>
  <text x="200" y="528" text-anchor="middle" fill="#ccc" font-size="8">TXN: QHG7K2P9X4  |  2024-01-15T16:45:22+03:00</text>
</svg>
